<?xml version="1.0" encoding="UTF-8" standalone="no"?> <svg id="Layer_1" data-name="Layer 1" xmlns="http://www.w3.org/2000/svg" viewBox="0 0 128 128"><defs><style>.cls-1{fill:#2d3e50;}.cls-2{fill:#2e79bd;}</style></defs><title>b</title><path class="cls-1" d="M80.73369,28.69333A45.265,45.265,0,0,0,39.81767,92.285a11.7086,11.7086,0,0,0,16.95922,5.20539,45.2735,45.2735,0,0,1,48.80845,0,11.71329,11.71329,0,0,0,16.96822-5.22411A45.26329,45.26329,0,0,0,80.73369,28.69333ZM51.128,82.6527a8.07783,8.07783,0,1,1,8.07785-8.0778A8.07782,8.07782,0,0,1,51.128,82.6527ZM65.22364,58.87a8.07784,8.07784,0,1,1-.00426-11.42384A8.07787,8.07787,0,0,1,65.22364,58.87ZM80.5813,52.01442a8.07783,8.07783,0,1,1,8.07179-8.08382A8.07776,8.07776,0,0,1,80.5813,52.01442ZM96.2907,58.02048a8.07783,8.07783,0,1,1,11.42375-.01278A8.07778,8.07778,0,0,1,96.2907,58.02048Zm14.95692,23.41834a8.07786,8.07786,0,1,1,8.06577-8.08993A8.07786,8.07786,0,0,1,111.24762,81.43882Z"/><path class="cls-2" d="M30.51948,95.76959a15.752,15.752,0,0,0-7.08483-12.59442,13.659,13.659,0,0,0-15.75793.70547A15.95151,15.95151,0,0,0,1.597,97.38889c.34694,7.14663,12.40452,19.19442,14.81815,22.81847l.05785.08689a1.19249,1.19249,0,0,0,2.0811-.11658l.04911-.09282c2.05088-3.87492,12.26351-17.17481,11.91622-24.3156Z"/><path class="cls-2" d="M8.38377,79.91023a13.6273,13.6273,0,0,1,15.05088-.20369c.09756.0622.19007.131.28592.19535.04995-.67626.095-1.355.13877-2.03063.44753-7.33578.59935-15.0511.44353-22.93022-.15585-8.1668-.63532-15.67438-1.47034-22.94621-.46752-4.06741-1.0149-7.8272-1.67412-11.48709-.11188-.61529-.22776-1.23462-.34764-1.84991-.06791-.3396-.13183-.67525-.19974-1.03884l-.17984-.871c-.13982-.66721-.27969-1.33447-.4315-1.99373-.5154-2.31339-.97492-4.09939-1.49432-5.7895v-.004a2.58411,2.58411,0,0,0-1.7021-1.6981,2.56766,2.56766,0,0,0-3.20441,1.7021c-.5154,1.69011-.97888,3.4761-1.49428,5.7815-.15186.67125-.29168,1.34251-.43154,2.00977l-.18379.887c-.06391.33561-.12783.67125-.19179,1.00286-.11988.62329-.23971,1.24262-.3476,1.86191-.65926,3.66389-1.21064,7.41968-1.67811,11.48709C8.4407,39.26665,7.95724,46.77424,7.80543,54.941c-.15581,7.87912-.008,15.59444.43949,22.93022C8.28876,78.5509,8.33383,79.23059,8.38377,79.91023Z"/></svg>