<svg viewBox="0 0 48 48" xmlns="http://www.w3.org/2000/svg" xmlns:xlink="http://www.w3.org/1999/xlink" >
<defs>



 <path fill="#000000" id="i-453" d="M48,23v-1H0v1c0,7.189,3.341,13.113,8.911,16.816C6.929,40.824,4,42.844,4,46c0,1.104,0.897,2,2,2 c3.664,0,5.192-4.363,5.733-6.59C15.241,43.076,19.392,44,24,44s8.759-0.924,12.267-2.59C36.809,43.637,38.336,48,42,48 c1.103,0,2-0.896,2-2c0-3.156-2.929-5.176-4.911-6.184C44.659,36.113,48,30.189,48,23z M6,46c0-1.895,1.922-3.389,3.569-4.276 C9.028,43.531,7.935,46,6,46z M42.001,46L42.001,46c-1.931,0-3.023-2.456-3.566-4.262C39.984,42.566,42.001,44.025,42.001,46z M24,42C13.332,42,2.569,36.424,2.022,24h43.957C45.431,36.424,34.669,42,24,42z M23.934,20c1.969,0,3.575-0.668,4.646-1.932 c1.793-2.115,1.534-5.063,1.34-6.232c-1.071-6.429-7.275-9.599-7.539-9.73l-2.113-1.057l0.712,2.252 c0.009,0.029,0.896,2.984-1.878,7.145c-1.366,2.048-1.545,4.572-0.467,6.588C19.644,18.918,21.575,20,23.934,20z M20.766,11.555 c1.792-2.688,2.278-5.021,2.34-6.617c1.715,1.274,4.254,3.705,4.841,7.227c0.31,1.862-0.024,3.586-0.894,4.611 c-0.511,0.604-1.223,0.983-2.12,1.141V15h-2v2.898c-1.135-0.227-2.02-0.846-2.536-1.81C19.68,14.746,19.824,12.967,20.766,11.555z" /> 
</defs>

<use x="0" y="0" xlink:href="#i-453"/>

</svg>